<mxfile host="app.diagrams.net" agent="Mozilla/5.0 (Windows NT 10.0; Win64; x64) AppleWebKit/537.36 (KHTML, like Gecko) Chrome/121.0.0.0 Safari/537.36" border="50" scale="3" compressed="false" locked="false" version="24.7.7">
  <diagram name="Blank" id="YmL12bMKpDGza6XwsDPr">
    <mxGraphModel dx="2000" dy="669" grid="0" gridSize="10" guides="1" tooltips="1" connect="1" arrows="1" fold="1" page="0" pageScale="1" pageWidth="827" pageHeight="1169" background="none" math="1" shadow="0">
      <root>
        <mxCell id="X5NqExCQtvZxIxQ7pmgY-0" />
        <mxCell id="1" parent="X5NqExCQtvZxIxQ7pmgY-0" />
        <mxCell id="BvsdqlHEoa5w_EsFs4Y4-4" style="edgeStyle=orthogonalEdgeStyle;rounded=0;orthogonalLoop=1;jettySize=auto;html=1;exitX=0.5;exitY=1;exitDx=0;exitDy=0;" edge="1" parent="1" source="BvsdqlHEoa5w_EsFs4Y4-8" target="BvsdqlHEoa5w_EsFs4Y4-11">
          <mxGeometry relative="1" as="geometry">
            <mxPoint x="180" y="410" as="targetPoint" />
            <mxPoint x="425" y="350" as="sourcePoint" />
          </mxGeometry>
        </mxCell>
        <mxCell id="BvsdqlHEoa5w_EsFs4Y4-51" style="edgeStyle=orthogonalEdgeStyle;rounded=0;orthogonalLoop=1;jettySize=auto;html=1;exitX=0.5;exitY=1;exitDx=0;exitDy=0;" edge="1" parent="1" source="BvsdqlHEoa5w_EsFs4Y4-8" target="BvsdqlHEoa5w_EsFs4Y4-13">
          <mxGeometry relative="1" as="geometry" />
        </mxCell>
        <mxCell id="BvsdqlHEoa5w_EsFs4Y4-54" style="edgeStyle=orthogonalEdgeStyle;rounded=0;orthogonalLoop=1;jettySize=auto;html=1;exitX=0.5;exitY=1;exitDx=0;exitDy=0;" edge="1" parent="1" source="BvsdqlHEoa5w_EsFs4Y4-8" target="BvsdqlHEoa5w_EsFs4Y4-53">
          <mxGeometry relative="1" as="geometry" />
        </mxCell>
        <mxCell id="BvsdqlHEoa5w_EsFs4Y4-8" value="&lt;h2&gt;&lt;font style=&quot;font-size: 18px;&quot;&gt;&lt;b&gt;4.5 时间服务-&lt;/b&gt;&lt;/font&gt;&lt;span style=&quot;font-size: 18px;&quot;&gt;&lt;b&gt;参见：LongRidesSolution.java 如根据事件时间（驾驶时间）超过两小时就告警&lt;/b&gt;&lt;/span&gt;&lt;/h2&gt;" style="rounded=0;whiteSpace=wrap;html=1;" vertex="1" parent="1">
          <mxGeometry x="203" y="60" width="439" height="115" as="geometry" />
        </mxCell>
        <mxCell id="BvsdqlHEoa5w_EsFs4Y4-11" value="&lt;font style=&quot;font-size: 14px;&quot;&gt;【定时器服务-TimerService】：&lt;/font&gt;&lt;div&gt;&lt;font style=&quot;font-size: 14px;&quot;&gt;①窗口算子WindowOperator使用InternalTimerService来管理定时器（Timer）,&lt;/font&gt;&lt;/div&gt;&lt;div&gt;&lt;font style=&quot;font-size: 14px;&quot;&gt;②初始化在open方法中实现。&lt;/font&gt;&lt;div&gt;&lt;font style=&quot;font-size: 14px;&quot;&gt;③UDF方法中获取：XXXOperator内部类Context#timerService()&lt;/font&gt;&lt;/div&gt;&lt;/div&gt;&lt;div&gt;&lt;font style=&quot;font-size: 14px;&quot;&gt;④就可以注册&lt;/font&gt;&lt;span style=&quot;color: rgb(8, 8, 8); font-family: &amp;quot;JetBrains Mono&amp;quot;, monospace; font-size: 10.5pt; background-color: initial;&quot;&gt;registerEventTimeTimer，删除&lt;/span&gt;&lt;span style=&quot;color: rgb(8, 8, 8); font-family: &amp;quot;JetBrains Mono&amp;quot;, monospace; font-size: 10.5pt; background-color: initial;&quot;&gt;deleteEventTimeTimerd等等操作&lt;/span&gt;&lt;/div&gt;" style="rounded=0;whiteSpace=wrap;html=1;align=left;" vertex="1" parent="1">
          <mxGeometry x="-215" y="341" width="335" height="150" as="geometry" />
        </mxCell>
        <mxCell id="BvsdqlHEoa5w_EsFs4Y4-13" value="&lt;font face=&quot;JetBrains Mono, monospace&quot;&gt;&lt;span style=&quot;font-size: 14px;&quot;&gt;【&lt;/span&gt;&lt;/font&gt;&lt;span style=&quot;font-size: 14px; font-family: &amp;quot;JetBrains Mono&amp;quot;, monospace; background-color: initial;&quot;&gt;优先级队列-PriorityQueue】：registerEventTimeTimer#registerEventTimeTimer&amp;nbsp;&lt;/span&gt;" style="rounded=0;whiteSpace=wrap;html=1;align=left;" vertex="1" parent="1">
          <mxGeometry x="700" y="339" width="327" height="152" as="geometry" />
        </mxCell>
        <mxCell id="BvsdqlHEoa5w_EsFs4Y4-53" value="&lt;font style=&quot;font-size: 14px;&quot;&gt;【定时器-Timer】：&lt;/font&gt;&lt;div&gt;&lt;span style=&quot;font-size: 14px;&quot;&gt;如何触发：&lt;/span&gt;&lt;span style=&quot;background-color: initial; font-size: 14px;&quot;&gt;InternalTimerServiceImpl#advanceWatermark触发UDF的onTime()方法&lt;/span&gt;&lt;br&gt;&lt;/div&gt;" style="rounded=0;whiteSpace=wrap;html=1;align=left;" vertex="1" parent="1">
          <mxGeometry x="255" y="337" width="335" height="153" as="geometry" />
        </mxCell>
      </root>
    </mxGraphModel>
  </diagram>
</mxfile>
